# xmcd
#
# Track frame offsets:
#	150
#	15052
#	33271
#	50081
#	76435
#	92313
#	117076
#	139441
#
# Disc length: 2334 seconds
#
# Revision: 1
# Processed by: cddbd v1.5.1PL2 Copyright (c) Steve Scherf et al.
# Submitted via: audiograbber 1.81.02
#
DISCID=57091c08
DTITLE=Tim Buckley - Blue Afternoon
DYEAR=1900
DGENRE=Rock
TTITLE0=Happy Time
TTITLE1=Chase The Blues Away
TTITLE2=I Must Have Been Blind
TTITLE3=The River
TTITLE4=So Lonely
TTITLE5=Cafe
TTITLE6=Blue Melody
TTITLE7=The Train
EXTD=
EXTT0=
EXTT1=
EXTT2=
EXTT3=
EXTT4=
EXTT5=
EXTT6=
EXTT7=
PLAYORDER=
